#!OML:ASF X:\für Bonn\!DataBase\2005_08_10_Bjorn_Final\c3d\bjorn.ASF
:FULLY-SPECIFIED
:DEGREES
46
root 4.24415 23.6917 -17.8355 3.00692 -3.3758 362.48
lowerback -7.11612 0.917668 2.04232
upperback 3.28646 1.01665 0.0367407
thorax 7.48572 0.597002 -0.971661
lowerneck -3.34223 -1.20294 3.77428
upperneck 0.518118 -1.67968 -5.56117
head 0.653908 -0.88926 -2.43398
rclavicle -2.45499e-014 -9.14409e-015
rhumerus -52.1035 -26.3031 -48.2845
rradius 110.515
rwrist -26.9372
rhand -13.424 9.87318
rfingers 7.12502
rthumb 12.6845 -19.7216
lclavicle -2.45499e-014 -9.14409e-015
lhumerus -46.6075 11.4771 52.3021
lradius 91.7877
lwrist 38.5141
lhand -22.6066 -11.7862
lfingers 7.12502
lthumb 3.82299 18.1593
rfemur -9.75743 -6.13521 14.3387
rtibia 33.8464
rfoot 16.2942 6.41966
rtoes -24.1149
lfemur -9.01369 7.92148 -19.3414
ltibia 34.3333
lfoot 18.7657 -5.39713
ltoes -18.2302
47
root 4.24399 23.753 -17.6718 2.62843 -3.60292 362.546
lowerback -6.47702 0.98559 2.01582
upperback 3.43585 1.12765 -0.0201653
thorax 7.27947 0.651552 -1.00995
lowerneck -3.54011 -1.17803 3.38254
upperneck 0.329937 -1.64908 -4.9799
head 0.635082 -0.870485 -2.17047
rclavicle 1.78906e-014 -7.95139e-016
rhumerus -51.6909 -25.6644 -48.8094
rradius 111.717
rwrist -26.3708
rhand -13.5358 10.1735
rfingers 7.12502
rthumb 12.5766 -19.4279
lclavicle 1.78906e-014 -7.95139e-016
lhumerus -46.0651 11.0017 52.7029
lradius 92.248
lwrist 36.1562
lhand -22.842 -12.3507
lfingers 7.12502
lthumb 3.59566 17.5987
rfemur -9.78818 -6.38108 14.2872
rtibia 33.5371
rfoot 16.1877 7.07959
rtoes -23.9624
lfemur -9.12116 8.56488 -19.5214
ltibia 34.1207
lfoot 18.197 -5.28153
ltoes -18.9905
48
root 4.24358 23.8055 -17.5126 2.23615 -3.87478 362.64
lowerback -5.80853 1.05565 1.94674
upperback 3.6019 1.24534 -0.0803171
thorax 7.07328 0.707699 -1.02889
lowerneck -3.69819 -1.13371 2.857
upperneck 0.0793034 -1.58764 -4.18832
head 0.592266 -0.833254 -1.81647
rclavicle -1.3418e-015 7.95139e-016
rhumerus -51.2451 -24.9511 -49.4217
rradius 112.846
rwrist -26.0535
rhand -13.6448 10.3182
rfingers 7.12502
rthumb 12.4716 -19.2897
lclavicle -1.3418e-015 7.95139e-016
lhumerus -45.6646 10.535 53.0729
lradius 92.8279
lwrist 33.8221
lhand -23.0458 -12.8096
lfingers 7.12502
lthumb 3.39888 17.143
rfemur -9.86743 -6.53941 14.2185
rtibia 33.271
rfoot 16.1372 7.66851
rtoes -23.4707
lfemur -9.25754 9.21861 -19.7293
ltibia 33.9044
lfoot 17.5724 -5.24586
ltoes -20.37
49
root 4.24321 23.8475 -17.3536 1.91459 -4.14713 362.757
lowerback -5.20427 1.13345 1.84695
upperback 3.71274 1.37308 -0.130566
thorax 6.8447 0.766642 -1.02039
lowerneck -3.70086 -1.11325 2.43537
upperneck -0.233266 -1.55614 -3.59215
head 0.500983 -0.810949 -1.54693
rclavicle -4.22417e-015 -2.78299e-015
rhumerus -50.9511 -24.1527 -49.9703
rradius 113.985
rwrist -25.7614
rhand -13.6345 10.0558
rfingers 7.12502
rthumb 12.4815 -19.5515
lclavicle -4.22417e-015 -2.78299e-015
lhumerus -45.448 9.93794 53.5403
lradius 93.4277
lwrist 31.9029
lhand -23.4117 -13.4888
lfingers 7.12502
lthumb 3.04553 16.4692
rfemur -10.0565 -6.69763 14.1343
rtibia 33.0537
rfoot 16.1585 8.21833
rtoes -22.7712
lfemur -9.50466 9.94699 -19.9618
ltibia 33.6971
lfoot 16.9349 -5.30873
ltoes -21.9296
50
root 4.24144 23.8747 -17.1936 1.67675 -4.34777 362.826
lowerback -4.74102 1.19616 1.78588
upperback 3.8275 1.4729 -0.173859
thorax 6.70179 0.814205 -1.02823
lowerneck -3.81018 -1.11196 2.33107
upperneck -0.4702 -1.5588 -3.39906
head 0.44716 -0.810723 -1.46622
rclavicle -2.5345e-015 -6.36111e-015
rhumerus -50.6704 -23.3812 -50.5832
rradius 115.074
rwrist -25.3568
rhand -13.4515 9.53448
rfingers 7.12502
rthumb 12.658 -20.0619
lclavicle -2.5345e-015 -6.36111e-015
lhumerus -45.2913 9.26883 54.0411
lradius 94.0223
lwrist 30.2475
lhand -23.6536 -13.8649
lfingers 7.12502
lthumb 2.81193 16.0963
rfemur -10.3261 -6.85516 14.1062
rtibia 32.8902
rfoot 16.1929 8.54879
rtoes -21.3321
lfemur -9.84756 10.6428 -20.1358
ltibia 33.4846
lfoot 16.2934 -5.3186
ltoes -23.0691
51
root 4.23935 23.8854 -17.0298 1.33597 -4.46934 362.822
lowerback -4.22469 1.22145 1.80123
upperback 3.98472 1.51533 -0.189397
thorax 6.57289 0.836831 -1.05739
lowerneck -3.9383 -1.10121 2.37328
upperneck -0.686757 -1.55315 -3.43814
head 0.401348 -0.808686 -1.48555
rclavicle -3.97569e-015 4.37326e-015
rhumerus -50.4325 -22.4825 -51.3047
rradius 115.894
rwrist -24.3684
rhand -13.4803 9.40724
rfingers 7.12502
rthumb 12.6302 -20.1909
lclavicle -3.97569e-015 4.37326e-015
lhumerus -45.2684 8.57753 54.5255
lradius 94.7076
lwrist 28.6781
lhand -23.6679 -13.7637
lfingers 7.12502
lthumb 2.79809 16.1976
rfemur -10.4294 -7.02788 14.1347
rtibia 32.7616
rfoot 16.1945 8.79393
rtoes -19.6085
lfemur -10.0708 11.3085 -20.1892
ltibia 33.2736
lfoot 15.7264 -5.30408
ltoes -23.6597
52
root 4.23606 23.885 -16.8634 1.11497 -4.58344 362.818
lowerback -3.85632 1.25024 1.77909
upperback 4.12654 1.5609 -0.180304
thorax 6.51133 0.858835 -1.03708
lowerneck -4.12927 -1.09521 2.3809
upperneck -0.887207 -1.55314 -3.48951
head 0.371067 -0.810131 -1.50365
rclavicle -6.55989e-015 7.55382e-015
rhumerus -50.1734 -21.6013 -52.0166
rradius 116.594
rwrist -23.172
rhand -13.3436 9.25948
rfingers 7.12502
rthumb 12.762 -20.3305
lclavicle -6.55989e-015 7.55382e-015
lhumerus -45.2739 7.80627 55.1547
lradius 95.1389
lwrist 26.6531
lhand -24.044 -14.0253
lfingers 7.12502
lthumb 2.43484 15.9406
rfemur -10.6285 -7.15606 14.1724
rtibia 32.638
rfoot 16.1736 8.87179
rtoes -17.8463
lfemur -10.4233 11.9242 -20.2577
ltibia 33.0767
lfoot 15.2027 -5.23
ltoes -24.0112
53
root 4.23252 23.8774 -16.6946 1.2044 -4.69377 362.795
lowerback -3.83106 1.28116 1.78414
upperback 4.19852 1.60251 -0.190741
thorax 6.57508 0.880808 -1.04635
lowerneck -4.37128 -1.08171 2.39978
upperneck -1.04204 -1.54365 -3.51229
head 0.363889 -0.807247 -1.51538
rclavicle 8.24956e-015 9.93923e-015
rhumerus -49.9653 -20.6886 -52.7724
rradius 117.122
rwrist -21.62
rhand -13.2673 9.4267
rfingers 7.12502
rthumb 12.8355 -20.1587
lclavicle 8.24956e-015 9.93923e-015
lhumerus -45.3301 7.01309 55.7505
lradius 95.6008
lwrist 24.8083
lhand -24.4003 -14.2863
lfingers 7.12502
lthumb 2.09077 15.6832
rfemur -11.1585 -7.30713 14.279
rtibia 32.5078
rfoot 16.1177 8.93438
rtoes -17.1412
lfemur -11.1383 12.5226 -20.3618
ltibia 32.9094
lfoot 14.7796 -5.04898
ltoes -24.1543
